# xmcd CD database file generated by Grip 3.3.1
# 
# Track frame offsets:
#       150
#       47320
#       85772
#       119769
#       126774
#       133635
#       152104
#       161102
#       165571
#       174489
#       194969
#       204370
#       223988
#       234477
#       267790
#       295063
#       314017
# 
# Disc length: 4504 seconds
# 
# Revision: 1
# Processed by: cddbd v1.5.2PL0 Copyright (c) Steve Scherf et al.
# Submitted via: Grip 3.3.1
# 
DISCID=00119611
DTITLE=Jascha Heifetz - Jascha Heifetz plays Great Violin Sonatas [CD8)
DYEAR=2013
DGENRE=Classical
TTITLE0=1. Agitato - Sonata for Violin and Piano No.1 (Ernest Bloch)
TTITLE1=2. Molto quieto - Sonata for Violin and Piano No.1 (Ernest Bloch)
TTITLE2=3. Moderato - Sonata for Violin and Piano No.1 (Ernest Bloch)
TTITLE3=I. Andante moderato - Sonata for Violin and Piano No.2 "Poème my
TTITLE3=stique" (Ernest Bloch)
TTITLE4=II. Animato - Sonata for Violin and Piano No.2 "Poème mystique" 
TTITLE4=(Ernest Bloch)
TTITLE5=III. Tempo 1 - Animato - Moderato - Sonata for Violin and Piano N
TTITLE5=o.2 "Poème mystique" (Ernest Bloch)
TTITLE6=IV L'istesso tempo (ma un poco lento) - Sonata for Violin and Pia
TTITLE6=no No.2 "Poème mystique" (Ernest Bloch)
TTITLE7=V. Moderato assai "Credo in unum Deum!..." - Sonata for Violin an
TTITLE7=d Piano No.2 "Poème mystique" (Ernest Bloch)
TTITLE8=VI. - Sonata for Violin and Piano No.2 "Poème mystique" (Ernest 
TTITLE8=Bloch)
TTITLE9=VII. Animato - Moderato - Allegro moderato - Tempo iniziale - Son
TTITLE9=ata for Violin and Piano No.2 "Poème mystique" (Ernest Bloch)
TTITLE10=VIII. Molto quieto - Sonata for Violin and Piano No.2 "Poème mys
TTITLE10=tique" (Ernest Bloch)
TTITLE11=1. Molto moderato - Sonata for Violin and Piano No.1 op.2 (Howard
TTITLE11=Ferguson)
TTITLE12=2. Allegro furioso - Sonata for Violin and Piano No.1 op.2 (Howar
TTITLE12=d Ferguson)
TTITLE13=3. Quasi fantasia - Sonata for Violin and Piano No.1 op.2 (Howard
TTITLE13=Ferguson)
TTITLE14=1. Allegro - Sonata for Violin and Piano in G minor op.1 (Karen K
TTITLE14=hachaturian)
TTITLE15=2. Andante - Sonata for Violin and Piano in G minor op.1 (Karen K
TTITLE15=hachaturian)
TTITLE16=3. Presto - Sonata for Violin and Piano in G minor op.1 (Karen Kh
TTITLE16=achaturian)
EXTD=
EXTT0=
EXTT1=
EXTT2=
EXTT3=
EXTT4=
EXTT5=
EXTT6=
EXTT7=
EXTT8=
EXTT9=
EXTT10=
EXTT11=
EXTT12=
EXTT13=
EXTT14=
EXTT15=
EXTT16=
PLAYORDER=
